<?xml version="1.0" encoding="utf-8"?>
<!-- Generator: Adobe Illustrator 15.0.0, SVG Export Plug-In . SVG Version: 6.00 Build 0)  -->
<!DOCTYPE svg PUBLIC "-//W3C//DTD SVG 1.1//EN" "http://www.w3.org/Graphics/SVG/1.1/DTD/svg11.dtd">
<svg version="1.1" id="Layer_3" xmlns="http://www.w3.org/2000/svg" xmlns:xlink="http://www.w3.org/1999/xlink" x="0px" y="0px"
	 width="60px" height="60px" viewBox="0 0 60 60" enable-background="new 0 0 60 60" xml:space="preserve">
<path fill="#009900" d="M48.901,24.109c0.787-0.875,1.279-2.02,1.279-3.288c0-2.684-2.144-4.855-4.81-4.926
	c0.006-0.154,0.022-0.305,0.022-0.46c0-2.015-0.521-3.906-1.433-5.552c1.074-0.604,1.809-1.742,1.809-3.062
	c0-1.949-1.579-3.527-3.527-3.527c-1.363,0-2.532,0.781-3.119,1.913c-1.568-0.802-3.339-1.263-5.221-1.263
	c-4.225,0-7.907,2.287-9.904,5.684c-1.421-0.444-2.933-0.684-4.5-0.684c-8.333,0-15.087,6.754-15.087,15.087
	c0,3.716,1.35,7.113,3.578,9.743c-2.885,1.527-4.852,4.556-4.852,8.048c0,5.027,4.076,9.104,9.105,9.104
	c3.328,0,6.231-1.792,7.819-4.458c0.94,0.53,2.024,0.837,3.181,0.837c1.701,0,3.244-0.66,4.401-1.732
	c2.562,5.518,8.137,9.354,14.622,9.354c8.906,0,16.128-7.221,16.128-16.127C58.394,32.259,54.495,26.641,48.901,24.109z"/>
<path fill="#80FF80" d="M6.442,24.84c0-7.658,6.208-13.866,13.866-13.866c3.583,0,6.836,1.371,9.297,3.6
	c-2.537-2.8-6.19-4.568-10.266-4.568c-7.658,0-13.866,6.208-13.866,13.866c0,4.076,1.769,7.729,4.568,10.267
	C7.813,31.678,6.442,28.423,6.442,24.84z"/>
<path fill="#008000" d="M19.095,35.838c1.125-0.937,2.57-1.501,4.148-1.501c1.207,0,2.332,0.336,3.3,0.909
	c1.468-6.524,6.884-11.541,13.61-12.424c-0.211-0.478-0.359-1.156,0.004-1.881c-1.075,0.739-6.721,3.562-10.82,2.016
	c-0.807,1.209,1.008,2.083,1.48,2.557c-0.603,0.944-2.206,1.601-3.818,3.147s-1.397,2.815-1.532,3.419
	c-0.135,0.605-1.316,0.455-3.735,0.656s-5.388,0.707-5.388,0.707c-0.125,0.027-0.221,0.064-0.299,0.107
	C17.216,34.093,18.254,34.876,19.095,35.838z"/>
<path fill="#80FF80" d="M20.308,10.975c3.583,0,6.836,1.371,9.297,3.6c-2.537-2.8-6.19-4.568-10.266-4.568
	c-7.658,0-13.866,6.208-13.866,13.866c0,3.872,1.608,7.352,4.168,9.866c-3.398,1.064-5.864,4.237-5.864,7.987
	c0,2.459,1.067,4.664,2.756,6.195c-1.344-1.484-2.171-3.45-2.171-5.611c0-4.621,3.747-8.369,8.369-8.369
	c2.161,0,4.125,0.828,5.611,2.174c-1.532-1.69-3.736-2.758-6.196-2.758c-0.853,0-1.675,0.129-2.45,0.366
	c-2.019-2.407-3.255-5.494-3.255-8.882C6.442,17.183,12.65,10.975,20.308,10.975z"/>
<path fill="#008000" d="M54.434,31.832c1.534,3,2.063,6.534,1.239,10.071c-1.851,7.951-9.797,12.896-17.748,11.046
	c-0.785-0.184-1.532-0.438-2.255-0.736c1.117,0.613,2.33,1.097,3.632,1.402c7.68,1.786,15.355-2.99,17.145-10.672
	C57.372,38.964,56.524,34.991,54.434,31.832z"/>
<path fill="#008000" d="M43.682,16.159c0.19-0.064,0.378-0.136,0.578-0.177c-0.021-1.993-0.622-3.901-1.688-5.51
	C43.449,12.187,43.854,14.148,43.682,16.159z"/>
<path fill="#008000" d="M44.904,5.297c0.335,0.656,0.451,1.429,0.271,2.203c-0.405,1.739-2.143,2.82-3.881,2.415
	c-0.173-0.04-0.337-0.095-0.494-0.161c0.245,0.135,0.51,0.24,0.794,0.307c1.68,0.391,3.358-0.654,3.749-2.334
	C45.546,6.857,45.36,5.988,44.904,5.297z"/>
<path fill="#80FF80" d="M39.19,7.01c0-1.79,1.451-3.242,3.241-3.242c0.837,0,1.599,0.321,2.174,0.842
	c-0.593-0.655-1.447-1.068-2.4-1.068c-1.79,0-3.242,1.451-3.242,3.242c0,0.953,0.414,1.807,1.068,2.4
	C39.511,8.609,39.19,7.847,39.19,7.01z"/>
<path fill="#80FF80" d="M42.096,23.806c-7.275,0-13.313,5.243-14.57,12.156c0.383,0.337,0.726,0.717,1.02,1.135
	c1.218-6.96,7.277-12.256,14.586-12.256c3.829,0,7.308,1.467,9.939,3.849C50.357,25.696,46.453,23.806,42.096,23.806z"/>
<path fill="#008000" d="M49.348,21.771c-0.187,0.802-0.59,1.491-1.115,2.052c0.122,0.049,0.248,0.09,0.369,0.142
	c0.459-0.523,0.813-1.15,0.982-1.875c0.283-1.218,0.024-2.435-0.615-3.402C49.438,19.606,49.601,20.689,49.348,21.771z"/>
<path fill="#008000" d="M29.067,39.221c0.617,1.207-0.257,2.713-1.008,3.965c-1.008,1.68-4.8,2.491-7.997,1.747
	c-0.174-0.04-0.575,0.444-0.951,0.871c-0.04-0.034-0.084-0.063-0.124-0.098c-0.111,0.201-0.229,0.397-0.355,0.587
	c-0.104,0.085-0.194,0.142-0.25,0.118c0.034,0.019,0.088,0.028,0.135,0.041c-1.895,2.714-5.304,4.154-8.725,3.357
	c-0.443-0.104-0.865-0.247-1.273-0.416c0.631,0.347,1.316,0.619,2.051,0.792c3.481,0.811,6.949-0.777,8.708-3.677
	c0.685-0.016,1.527-0.108,1.86-0.03c3.087,0.72,7.614-0.742,8.333-3.831C29.842,41.048,29.907,40.491,29.067,39.221z"/>
<path fill="#80FF80" d="M23.174,34.793c-1.446,0-2.772,0.516-3.804,1.373c0.123,0.154,0.241,0.311,0.354,0.473
	c1.042-0.89,2.39-1.43,3.867-1.43c1.539,0,2.938,0.59,3.996,1.548C26.496,35.553,24.926,34.793,23.174,34.793z"/>
<path fill="#80FF80" d="M41.275,22.713c-0.196-0.505-0.307-1.053-0.307-1.627c0-2.506,2.032-4.539,4.539-4.539
	c1.172,0,2.238,0.449,3.043,1.179c-0.83-0.917-2.026-1.496-3.36-1.496c-2.507,0-4.539,2.032-4.539,4.539
	c0,0.701,0.167,1.359,0.452,1.951C41.16,22.716,41.218,22.716,41.275,22.713z"/>
<path fill="#80FF80" d="M38.807,6.044c-1.494-0.816-3.201-1.292-5.025-1.292c-3.849,0-7.207,2.065-9.052,5.142
	c0.322,0.119,0.641,0.244,0.953,0.385c1.886-2.881,5.137-4.789,8.838-4.789c1.511,0,2.94,0.33,4.238,0.904
	C38.772,6.277,38.781,6.158,38.807,6.044z"/>
</svg>
